<svg xmlns="http://www.w3.org/2000/svg" xmlns:xlink="http://www.w3.org/1999/xlink" width="77.678" height="75.803" viewBox="0 0 77.678 75.803">
  <defs>
    <linearGradient id="linear-gradient" x1="-0.596" y1="-0.967" x2="1.423" y2="2.024" gradientUnits="objectBoundingBox">
      <stop offset="0" stop-color="#fcc000"/>
      <stop offset="1" stop-color="#e74c14"/>
    </linearGradient>
    <linearGradient id="linear-gradient-2" x1="-0.632" y1="-1.332" x2="1.241" y2="1.715" xlink:href="#linear-gradient"/>
    <linearGradient id="linear-gradient-3" x1="0.355" y1="-0.06" x2="0.785" y2="0.899" xlink:href="#linear-gradient"/>
    <linearGradient id="linear-gradient-4" x1="0.182" y1="-0.221" x2="0.633" y2="0.842" xlink:href="#linear-gradient"/>
  </defs>
  <g id="Group_26" data-name="Group 26" transform="translate(-11.322 -12.167)">
    <path id="Path_106" data-name="Path 106" d="M49.931,438.423a7.837,7.837,0,0,0-6.112,2.951l1.927,1.927a5.292,5.292,0,0,1,3.733-2.137,2.97,2.97,0,0,1,3.162,3.312c0,2.92-3.342,6.293-8.671,11.442v2.017H56.917v-2.95h-4.7c-.934,0-2.2.12-3.192.21,3.794-4.005,6.956-7.5,6.956-10.9C55.984,440.742,53.6,438.423,49.931,438.423Z" transform="translate(0 -405)" fill="url(#linear-gradient)"/>
    <path id="Path_107" data-name="Path 107" d="M72.936,450.317H70.527V438.785H66.4l-7.588,11.863V453h8.461v4.938h3.252V453h2.409Zm-5.661-4.336v4.336H62.247l3.493-5.33c.542-1.023,1.084-1.987,1.566-2.98h.12C67.366,443.121,67.275,444.867,67.275,445.981Z" transform="translate(0 -405)" fill="url(#linear-gradient-2)"/>
    <path id="Path_108" data-name="Path 108" d="M72.739,421.478H83.62a.82.82,0,1,0,0-1.641H69.488A32.355,32.355,0,0,0,27.522,435.37a.82.82,0,1,0,1.475.719,30.726,30.726,0,0,1,39.637-14.837l2.878,13.322a.821.821,0,0,0,.8.647.793.793,0,0,0,.174-.019.821.821,0,0,0,.629-.975l-2.613-12.1a30.719,30.719,0,0,1,.879,54.364.821.821,0,0,0,.79,1.439,32.357,32.357,0,0,0,.567-56.457Z" transform="translate(0 -405)" fill="url(#linear-gradient-3)"/>
    <path id="Path_109" data-name="Path 109" d="M68.635,477.015l-15.757-8.086a.822.822,0,0,0-1.027.234l-3.817,5.013c-2.519-1.326-12.35-6.87-16.164-14.481L37.2,453.92a.821.821,0,0,0,.074-1.02l-9.695-14.152a.814.814,0,0,0-.419-.315,12.385,12.385,0,0,0-11.128,2.59c-9.055,7.209-3.363,19.027,3,27.672,8.544,11.6,18.287,19.036,29.784,22.74a28.363,28.363,0,0,0,8.645,1.535c7.17,0,10.193-3.953,11.294-6.069.893-1.712,2.179-6.507.193-9.6A.824.824,0,0,0,68.635,477.015ZM67.3,486.143c-2.7,5.182-9.253,6.541-17.981,3.73-11.158-3.595-20.632-10.841-28.965-22.152-8.642-11.729-9.754-20.28-3.305-25.413a11.4,11.4,0,0,1,7.173-2.632,9.12,9.12,0,0,1,2.167.245l9.156,13.367-5.262,5.7a.824.824,0,0,0-.143.9c4.393,9.521,17.227,15.8,17.772,16.067a.82.82,0,0,0,1.009-.242L52.74,470.7l14.94,7.666C69.124,480.9,67.9,484.987,67.3,486.143Z" transform="translate(0 -405)" fill="url(#linear-gradient-4)"/>
  </g>
</svg>
