<svg xmlns="http://www.w3.org/2000/svg" xmlns:xlink="http://www.w3.org/1999/xlink" width="73.967" height="66.652" viewBox="0 0 73.967 66.652">
  <defs>
    <clipPath id="clip-path">
      <path id="Path_127" data-name="Path 127" d="M378.773,67.424V47.5a8.84,8.84,0,0,0-8.831-8.83h-3.185V25.831A8.84,8.84,0,0,0,357.926,17h-44.27a8.84,8.84,0,0,0-8.83,8.831V61.084a.924.924,0,0,0,1.547.683l7.557-6.89h2.912V67.716a8.84,8.84,0,0,0,8.83,8.83h44.045l7.529,6.864a.924.924,0,0,0,1.547-.683V67.613A.9.9,0,0,0,378.773,67.424Zm-65.092-14.4c-.015,0-.068-.005-.083-.005a.9.9,0,0,0-.644.241l-6.279,5.725V25.831a6.99,6.99,0,0,1,6.981-6.982h44.27a6.991,6.991,0,0,1,6.983,6.982V46.046a6.991,6.991,0,0,1-6.983,6.982Zm63.264,27.605-6.254-5.7a.928.928,0,0,0-.623-.241l-.126.007h-44.27a6.99,6.99,0,0,1-6.982-6.982V54.877h39.236a8.841,8.841,0,0,0,8.831-8.831V40.518h3.185a6.99,6.99,0,0,1,6.982,6.982V67.633a.961.961,0,0,0,.021.194Z" fill="none"/>
    </clipPath>
    <linearGradient id="linear-gradient" y1="0.5" x2="1" y2="0.5" gradientUnits="objectBoundingBox">
      <stop offset="0" stop-color="#fcc000"/>
      <stop offset="1" stop-color="#e74c14"/>
    </linearGradient>
    <linearGradient id="linear-gradient-2" x1="0" y1="0.5" x2="1" y2="0.5" xlink:href="#linear-gradient"/>
  </defs>
  <g id="Group_19" data-name="Group 19" transform="translate(-304.826 -17)">
    <g id="Group_14" data-name="Group 14">
      <g id="Group_13" data-name="Group 13">
        <g id="Group_12" data-name="Group 12" clip-path="url(#clip-path)">
          <rect id="Rectangle_171" data-name="Rectangle 171" width="0.164" height="40.116" transform="translate(318.69 40.518)" fill="#f8ab04"/>
          <rect id="Rectangle_172" data-name="Rectangle 172" width="0.638" height="40.116" transform="translate(318.854 40.518)" fill="#f8aa04"/>
          <rect id="Rectangle_173" data-name="Rectangle 173" width="0.638" height="40.116" transform="translate(319.492 40.518)" fill="#f8a904"/>
          <rect id="Rectangle_174" data-name="Rectangle 174" width="0.638" height="40.116" transform="translate(320.13 40.518)" fill="#f8a804"/>
          <rect id="Rectangle_175" data-name="Rectangle 175" width="0.638" height="40.116" transform="translate(320.767 40.518)" fill="#f7a704"/>
          <rect id="Rectangle_176" data-name="Rectangle 176" width="0.638" height="40.116" transform="translate(321.405 40.518)" fill="#f7a605"/>
          <rect id="Rectangle_177" data-name="Rectangle 177" width="0.638" height="40.116" transform="translate(322.043 40.518)" fill="#f7a505"/>
          <rect id="Rectangle_178" data-name="Rectangle 178" width="0.638" height="40.116" transform="translate(322.68 40.518)" fill="#f7a405"/>
          <rect id="Rectangle_179" data-name="Rectangle 179" width="0.638" height="40.116" transform="translate(323.318 40.518)" fill="#f7a305"/>
          <rect id="Rectangle_180" data-name="Rectangle 180" width="0.638" height="40.116" transform="translate(323.956 40.518)" fill="#f7a205"/>
          <rect id="Rectangle_181" data-name="Rectangle 181" width="0.638" height="40.116" transform="translate(324.593 40.518)" fill="#f6a105"/>
          <rect id="Rectangle_182" data-name="Rectangle 182" width="0.638" height="40.116" transform="translate(325.231 40.518)" fill="#f6a006"/>
          <rect id="Rectangle_183" data-name="Rectangle 183" width="0.638" height="40.116" transform="translate(325.868 40.518)" fill="#f69f06"/>
          <rect id="Rectangle_184" data-name="Rectangle 184" width="0.638" height="40.116" transform="translate(326.506 40.518)" fill="#f69e06"/>
          <rect id="Rectangle_185" data-name="Rectangle 185" width="0.638" height="40.116" transform="translate(327.144 40.518)" fill="#f69d06"/>
          <rect id="Rectangle_186" data-name="Rectangle 186" width="0.638" height="40.116" transform="translate(327.781 40.518)" fill="#f59c06"/>
          <rect id="Rectangle_187" data-name="Rectangle 187" width="0.638" height="40.116" transform="translate(328.419 40.518)" fill="#f59b06"/>
          <rect id="Rectangle_188" data-name="Rectangle 188" width="0.638" height="40.116" transform="translate(329.057 40.518)" fill="#f59a07"/>
          <rect id="Rectangle_189" data-name="Rectangle 189" width="0.638" height="40.116" transform="translate(329.694 40.518)" fill="#f59907"/>
          <rect id="Rectangle_190" data-name="Rectangle 190" width="0.638" height="40.116" transform="translate(330.332 40.518)" fill="#f59807"/>
          <rect id="Rectangle_191" data-name="Rectangle 191" width="0.638" height="40.116" transform="translate(330.97 40.518)" fill="#f59707"/>
          <rect id="Rectangle_192" data-name="Rectangle 192" width="0.638" height="40.116" transform="translate(331.607 40.518)" fill="#f49607"/>
          <rect id="Rectangle_193" data-name="Rectangle 193" width="0.638" height="40.116" transform="translate(332.245 40.518)" fill="#f49507"/>
          <rect id="Rectangle_194" data-name="Rectangle 194" width="0.638" height="40.116" transform="translate(332.883 40.518)" fill="#f49408"/>
          <rect id="Rectangle_195" data-name="Rectangle 195" width="0.638" height="40.116" transform="translate(333.52 40.518)" fill="#f49308"/>
          <rect id="Rectangle_196" data-name="Rectangle 196" width="0.638" height="40.116" transform="translate(334.158 40.518)" fill="#f49208"/>
          <rect id="Rectangle_197" data-name="Rectangle 197" width="0.638" height="40.116" transform="translate(334.796 40.518)" fill="#f39108"/>
          <rect id="Rectangle_198" data-name="Rectangle 198" width="0.638" height="40.116" transform="translate(335.433 40.518)" fill="#f39008"/>
          <rect id="Rectangle_199" data-name="Rectangle 199" width="0.638" height="40.116" transform="translate(336.071 40.518)" fill="#f38f09"/>
          <rect id="Rectangle_200" data-name="Rectangle 200" width="0.638" height="40.116" transform="translate(336.708 40.518)" fill="#f38e09"/>
          <rect id="Rectangle_201" data-name="Rectangle 201" width="0.638" height="40.116" transform="translate(337.346 40.518)" fill="#f38d09"/>
          <rect id="Rectangle_202" data-name="Rectangle 202" width="0.638" height="40.116" transform="translate(337.984 40.518)" fill="#f38c09"/>
          <rect id="Rectangle_203" data-name="Rectangle 203" width="0.638" height="40.116" transform="translate(338.621 40.518)" fill="#f28b09"/>
          <rect id="Rectangle_204" data-name="Rectangle 204" width="0.638" height="40.116" transform="translate(339.259 40.518)" fill="#f28a09"/>
          <rect id="Rectangle_205" data-name="Rectangle 205" width="0.638" height="40.116" transform="translate(339.897 40.518)" fill="#f2890a"/>
          <rect id="Rectangle_206" data-name="Rectangle 206" width="0.638" height="40.116" transform="translate(340.534 40.518)" fill="#f2880a"/>
          <rect id="Rectangle_207" data-name="Rectangle 207" width="0.638" height="40.116" transform="translate(341.172 40.518)" fill="#f2870a"/>
          <rect id="Rectangle_208" data-name="Rectangle 208" width="0.638" height="40.116" transform="translate(341.81 40.518)" fill="#f1850a"/>
          <rect id="Rectangle_209" data-name="Rectangle 209" width="0.638" height="40.116" transform="translate(342.447 40.518)" fill="#f1840a"/>
          <rect id="Rectangle_210" data-name="Rectangle 210" width="0.638" height="40.116" transform="translate(343.085 40.518)" fill="#f1830a"/>
          <rect id="Rectangle_211" data-name="Rectangle 211" width="0.638" height="40.116" transform="translate(343.723 40.518)" fill="#f1820b"/>
          <rect id="Rectangle_212" data-name="Rectangle 212" width="0.638" height="40.116" transform="translate(344.36 40.518)" fill="#f1810b"/>
          <rect id="Rectangle_213" data-name="Rectangle 213" width="0.638" height="40.116" transform="translate(344.998 40.518)" fill="#f0800b"/>
          <rect id="Rectangle_214" data-name="Rectangle 214" width="0.638" height="40.116" transform="translate(345.636 40.518)" fill="#f07f0b"/>
          <rect id="Rectangle_215" data-name="Rectangle 215" width="0.638" height="40.116" transform="translate(346.273 40.518)" fill="#f07e0b"/>
          <rect id="Rectangle_216" data-name="Rectangle 216" width="0.638" height="40.116" transform="translate(346.911 40.518)" fill="#f07d0b"/>
          <rect id="Rectangle_217" data-name="Rectangle 217" width="0.638" height="40.116" transform="translate(347.549 40.518)" fill="#f07c0c"/>
          <rect id="Rectangle_218" data-name="Rectangle 218" width="0.638" height="40.116" transform="translate(348.186 40.518)" fill="#f07b0c"/>
          <rect id="Rectangle_219" data-name="Rectangle 219" width="0.638" height="40.116" transform="translate(348.824 40.518)" fill="#ef7a0c"/>
          <rect id="Rectangle_220" data-name="Rectangle 220" width="0.638" height="40.116" transform="translate(349.461 40.518)" fill="#ef790c"/>
          <rect id="Rectangle_221" data-name="Rectangle 221" width="0.638" height="40.116" transform="translate(350.099 40.518)" fill="#ef780c"/>
          <rect id="Rectangle_222" data-name="Rectangle 222" width="0.638" height="40.116" transform="translate(350.737 40.518)" fill="#ef770d"/>
          <rect id="Rectangle_223" data-name="Rectangle 223" width="0.638" height="40.116" transform="translate(351.374 40.518)" fill="#ef760d"/>
          <rect id="Rectangle_224" data-name="Rectangle 224" width="0.638" height="40.116" transform="translate(352.012 40.518)" fill="#ee750d"/>
          <rect id="Rectangle_225" data-name="Rectangle 225" width="0.638" height="40.116" transform="translate(352.65 40.518)" fill="#ee740d"/>
          <rect id="Rectangle_226" data-name="Rectangle 226" width="0.638" height="40.116" transform="translate(353.287 40.518)" fill="#ee730d"/>
          <rect id="Rectangle_227" data-name="Rectangle 227" width="0.638" height="40.116" transform="translate(353.925 40.518)" fill="#ee720d"/>
          <rect id="Rectangle_228" data-name="Rectangle 228" width="0.638" height="40.116" transform="translate(354.563 40.518)" fill="#ee710e"/>
          <rect id="Rectangle_229" data-name="Rectangle 229" width="0.638" height="40.116" transform="translate(355.2 40.518)" fill="#ee700e"/>
          <rect id="Rectangle_230" data-name="Rectangle 230" width="0.638" height="40.116" transform="translate(355.838 40.518)" fill="#ed6f0e"/>
          <rect id="Rectangle_231" data-name="Rectangle 231" width="0.638" height="40.116" transform="translate(356.476 40.518)" fill="#ed6e0e"/>
          <rect id="Rectangle_232" data-name="Rectangle 232" width="0.638" height="40.116" transform="translate(357.113 40.518)" fill="#ed6d0e"/>
          <rect id="Rectangle_233" data-name="Rectangle 233" width="0.638" height="40.116" transform="translate(357.751 40.518)" fill="#ed6c0e"/>
          <rect id="Rectangle_234" data-name="Rectangle 234" width="0.638" height="40.116" transform="translate(358.389 40.518)" fill="#ed6b0f"/>
          <rect id="Rectangle_235" data-name="Rectangle 235" width="0.638" height="40.116" transform="translate(359.026 40.518)" fill="#ec6a0f"/>
          <rect id="Rectangle_236" data-name="Rectangle 236" width="0.638" height="40.116" transform="translate(359.664 40.518)" fill="#ec690f"/>
          <rect id="Rectangle_237" data-name="Rectangle 237" width="0.638" height="40.116" transform="translate(360.302 40.518)" fill="#ec680f"/>
          <rect id="Rectangle_238" data-name="Rectangle 238" width="0.638" height="40.116" transform="translate(360.939 40.518)" fill="#ec670f"/>
          <rect id="Rectangle_239" data-name="Rectangle 239" width="0.638" height="40.116" transform="translate(361.577 40.518)" fill="#ec660f"/>
          <rect id="Rectangle_240" data-name="Rectangle 240" width="0.638" height="40.116" transform="translate(362.214 40.518)" fill="#ec6510"/>
          <rect id="Rectangle_241" data-name="Rectangle 241" width="0.638" height="40.116" transform="translate(362.852 40.518)" fill="#eb6410"/>
          <rect id="Rectangle_242" data-name="Rectangle 242" width="0.638" height="40.116" transform="translate(363.49 40.518)" fill="#eb6310"/>
          <rect id="Rectangle_243" data-name="Rectangle 243" width="0.638" height="40.116" transform="translate(364.127 40.518)" fill="#eb6210"/>
          <rect id="Rectangle_244" data-name="Rectangle 244" width="0.638" height="40.116" transform="translate(364.765 40.518)" fill="#eb6110"/>
          <rect id="Rectangle_245" data-name="Rectangle 245" width="0.638" height="40.116" transform="translate(365.403 40.518)" fill="#eb6011"/>
          <rect id="Rectangle_246" data-name="Rectangle 246" width="0.638" height="40.116" transform="translate(366.04 40.518)" fill="#ea5f11"/>
          <rect id="Rectangle_247" data-name="Rectangle 247" width="0.638" height="40.116" transform="translate(366.678 40.518)" fill="#ea5e11"/>
          <rect id="Rectangle_248" data-name="Rectangle 248" width="0.638" height="40.116" transform="translate(367.316 40.518)" fill="#ea5d11"/>
          <rect id="Rectangle_249" data-name="Rectangle 249" width="0.638" height="40.116" transform="translate(367.953 40.518)" fill="#ea5c11"/>
          <rect id="Rectangle_250" data-name="Rectangle 250" width="0.638" height="40.116" transform="translate(368.591 40.518)" fill="#ea5b11"/>
          <rect id="Rectangle_251" data-name="Rectangle 251" width="0.638" height="40.116" transform="translate(369.229 40.518)" fill="#ea5a12"/>
          <rect id="Rectangle_252" data-name="Rectangle 252" width="0.638" height="40.116" transform="translate(369.866 40.518)" fill="#e95912"/>
          <rect id="Rectangle_253" data-name="Rectangle 253" width="0.638" height="40.116" transform="translate(370.504 40.518)" fill="#e95812"/>
          <rect id="Rectangle_254" data-name="Rectangle 254" width="0.638" height="40.116" transform="translate(371.142 40.518)" fill="#e95712"/>
          <rect id="Rectangle_255" data-name="Rectangle 255" width="0.638" height="40.116" transform="translate(371.779 40.518)" fill="#e95612"/>
          <rect id="Rectangle_256" data-name="Rectangle 256" width="0.638" height="40.116" transform="translate(372.417 40.518)" fill="#e95512"/>
          <rect id="Rectangle_257" data-name="Rectangle 257" width="0.638" height="40.116" transform="translate(373.054 40.518)" fill="#e85413"/>
          <rect id="Rectangle_258" data-name="Rectangle 258" width="0.638" height="40.116" transform="translate(373.692 40.518)" fill="#e85313"/>
          <rect id="Rectangle_259" data-name="Rectangle 259" width="0.638" height="40.116" transform="translate(374.33 40.518)" fill="#e85213"/>
          <rect id="Rectangle_260" data-name="Rectangle 260" width="0.638" height="40.116" transform="translate(374.967 40.518)" fill="#e85113"/>
          <rect id="Rectangle_261" data-name="Rectangle 261" width="0.638" height="40.116" transform="translate(375.605 40.518)" fill="#e85013"/>
          <rect id="Rectangle_262" data-name="Rectangle 262" width="0.638" height="40.116" transform="translate(376.243 40.518)" fill="#e84f13"/>
          <rect id="Rectangle_263" data-name="Rectangle 263" width="0.064" height="40.116" transform="translate(376.88 40.518)" fill="#e74e14"/>
          <rect id="Rectangle_264" data-name="Rectangle 264" width="0.064" height="40.142" transform="translate(306.675 18.849)" fill="#fcbe00"/>
          <rect id="Rectangle_265" data-name="Rectangle 265" width="0.638" height="40.142" transform="translate(306.739 18.849)" fill="#fbbd01"/>
          <rect id="Rectangle_266" data-name="Rectangle 266" width="0.638" height="40.142" transform="translate(307.377 18.849)" fill="#fbbc01"/>
          <rect id="Rectangle_267" data-name="Rectangle 267" width="0.638" height="40.142" transform="translate(308.014 18.849)" fill="#fbbb01"/>
          <rect id="Rectangle_268" data-name="Rectangle 268" width="0.638" height="40.142" transform="translate(308.652 18.849)" fill="#fbba01"/>
          <rect id="Rectangle_269" data-name="Rectangle 269" width="0.638" height="40.142" transform="translate(309.29 18.849)" fill="#fbb901"/>
          <rect id="Rectangle_270" data-name="Rectangle 270" width="0.638" height="40.142" transform="translate(309.927 18.849)" fill="#fbb801"/>
          <rect id="Rectangle_271" data-name="Rectangle 271" width="0.638" height="40.142" transform="translate(310.565 18.849)" fill="#fab702"/>
          <rect id="Rectangle_272" data-name="Rectangle 272" width="0.638" height="40.142" transform="translate(311.203 18.849)" fill="#fab602"/>
          <rect id="Rectangle_273" data-name="Rectangle 273" width="0.638" height="40.142" transform="translate(311.84 18.849)" fill="#fab502"/>
          <rect id="Rectangle_274" data-name="Rectangle 274" width="0.638" height="40.142" transform="translate(312.478 18.849)" fill="#fab402"/>
          <rect id="Rectangle_275" data-name="Rectangle 275" width="0.638" height="40.142" transform="translate(313.116 18.849)" fill="#fab302"/>
          <rect id="Rectangle_276" data-name="Rectangle 276" width="0.638" height="40.142" transform="translate(313.753 18.849)" fill="#f9b202"/>
          <rect id="Rectangle_277" data-name="Rectangle 277" width="0.638" height="40.142" transform="translate(314.391 18.849)" fill="#f9b103"/>
          <rect id="Rectangle_278" data-name="Rectangle 278" width="0.638" height="40.142" transform="translate(315.028 18.849)" fill="#f9b003"/>
          <rect id="Rectangle_279" data-name="Rectangle 279" width="0.638" height="40.142" transform="translate(315.666 18.849)" fill="#f9af03"/>
          <rect id="Rectangle_280" data-name="Rectangle 280" width="0.638" height="40.142" transform="translate(316.304 18.849)" fill="#f9ae03"/>
          <rect id="Rectangle_281" data-name="Rectangle 281" width="0.638" height="40.142" transform="translate(316.941 18.849)" fill="#f9ad03"/>
          <rect id="Rectangle_282" data-name="Rectangle 282" width="0.638" height="40.142" transform="translate(317.579 18.849)" fill="#f8ac03"/>
          <rect id="Rectangle_283" data-name="Rectangle 283" width="0.638" height="40.142" transform="translate(318.217 18.849)" fill="#f8ab04"/>
          <rect id="Rectangle_284" data-name="Rectangle 284" width="0.638" height="40.142" transform="translate(318.854 18.849)" fill="#f8aa04"/>
          <rect id="Rectangle_285" data-name="Rectangle 285" width="0.638" height="40.142" transform="translate(319.492 18.849)" fill="#f8a904"/>
          <rect id="Rectangle_286" data-name="Rectangle 286" width="0.638" height="40.142" transform="translate(320.13 18.849)" fill="#f8a804"/>
          <rect id="Rectangle_287" data-name="Rectangle 287" width="0.638" height="40.142" transform="translate(320.767 18.849)" fill="#f7a704"/>
          <rect id="Rectangle_288" data-name="Rectangle 288" width="0.638" height="40.142" transform="translate(321.405 18.849)" fill="#f7a605"/>
          <rect id="Rectangle_289" data-name="Rectangle 289" width="0.638" height="40.142" transform="translate(322.043 18.849)" fill="#f7a505"/>
          <rect id="Rectangle_290" data-name="Rectangle 290" width="0.638" height="40.142" transform="translate(322.68 18.849)" fill="#f7a405"/>
          <rect id="Rectangle_291" data-name="Rectangle 291" width="0.638" height="40.142" transform="translate(323.318 18.849)" fill="#f7a305"/>
          <rect id="Rectangle_292" data-name="Rectangle 292" width="0.638" height="40.142" transform="translate(323.956 18.849)" fill="#f7a205"/>
          <rect id="Rectangle_293" data-name="Rectangle 293" width="0.638" height="40.142" transform="translate(324.593 18.849)" fill="#f6a105"/>
          <rect id="Rectangle_294" data-name="Rectangle 294" width="0.638" height="40.142" transform="translate(325.231 18.849)" fill="#f6a006"/>
          <rect id="Rectangle_295" data-name="Rectangle 295" width="0.638" height="40.142" transform="translate(325.868 18.849)" fill="#f69f06"/>
          <rect id="Rectangle_296" data-name="Rectangle 296" width="0.638" height="40.142" transform="translate(326.506 18.849)" fill="#f69e06"/>
          <rect id="Rectangle_297" data-name="Rectangle 297" width="0.638" height="40.142" transform="translate(327.144 18.849)" fill="#f69d06"/>
          <rect id="Rectangle_298" data-name="Rectangle 298" width="0.638" height="40.142" transform="translate(327.781 18.849)" fill="#f59c06"/>
          <rect id="Rectangle_299" data-name="Rectangle 299" width="0.638" height="40.142" transform="translate(328.419 18.849)" fill="#f59b06"/>
          <rect id="Rectangle_300" data-name="Rectangle 300" width="0.638" height="40.142" transform="translate(329.057 18.849)" fill="#f59a07"/>
          <rect id="Rectangle_301" data-name="Rectangle 301" width="0.638" height="40.142" transform="translate(329.694 18.849)" fill="#f59907"/>
          <rect id="Rectangle_302" data-name="Rectangle 302" width="0.638" height="40.142" transform="translate(330.332 18.849)" fill="#f59807"/>
          <rect id="Rectangle_303" data-name="Rectangle 303" width="0.638" height="40.142" transform="translate(330.97 18.849)" fill="#f59707"/>
          <rect id="Rectangle_304" data-name="Rectangle 304" width="0.638" height="40.142" transform="translate(331.607 18.849)" fill="#f49607"/>
          <rect id="Rectangle_305" data-name="Rectangle 305" width="0.638" height="40.142" transform="translate(332.245 18.849)" fill="#f49507"/>
          <rect id="Rectangle_306" data-name="Rectangle 306" width="0.638" height="40.142" transform="translate(332.883 18.849)" fill="#f49408"/>
          <rect id="Rectangle_307" data-name="Rectangle 307" width="0.638" height="40.142" transform="translate(333.52 18.849)" fill="#f49308"/>
          <rect id="Rectangle_308" data-name="Rectangle 308" width="0.638" height="40.142" transform="translate(334.158 18.849)" fill="#f49208"/>
          <rect id="Rectangle_309" data-name="Rectangle 309" width="0.638" height="40.142" transform="translate(334.796 18.849)" fill="#f39108"/>
          <rect id="Rectangle_310" data-name="Rectangle 310" width="0.638" height="40.142" transform="translate(335.433 18.849)" fill="#f39008"/>
          <rect id="Rectangle_311" data-name="Rectangle 311" width="0.638" height="40.142" transform="translate(336.071 18.849)" fill="#f38f09"/>
          <rect id="Rectangle_312" data-name="Rectangle 312" width="0.638" height="40.142" transform="translate(336.708 18.849)" fill="#f38e09"/>
          <rect id="Rectangle_313" data-name="Rectangle 313" width="0.638" height="40.142" transform="translate(337.346 18.849)" fill="#f38d09"/>
          <rect id="Rectangle_314" data-name="Rectangle 314" width="0.638" height="40.142" transform="translate(337.984 18.849)" fill="#f38c09"/>
          <rect id="Rectangle_315" data-name="Rectangle 315" width="0.638" height="40.142" transform="translate(338.621 18.849)" fill="#f28b09"/>
          <rect id="Rectangle_316" data-name="Rectangle 316" width="0.638" height="40.142" transform="translate(339.259 18.849)" fill="#f28a09"/>
          <rect id="Rectangle_317" data-name="Rectangle 317" width="0.638" height="40.142" transform="translate(339.897 18.849)" fill="#f2890a"/>
          <rect id="Rectangle_318" data-name="Rectangle 318" width="0.638" height="40.142" transform="translate(340.534 18.849)" fill="#f2880a"/>
          <rect id="Rectangle_319" data-name="Rectangle 319" width="0.638" height="40.142" transform="translate(341.172 18.849)" fill="#f2870a"/>
          <rect id="Rectangle_320" data-name="Rectangle 320" width="0.638" height="40.142" transform="translate(341.81 18.849)" fill="#f1850a"/>
          <rect id="Rectangle_321" data-name="Rectangle 321" width="0.638" height="40.142" transform="translate(342.447 18.849)" fill="#f1840a"/>
          <rect id="Rectangle_322" data-name="Rectangle 322" width="0.638" height="40.142" transform="translate(343.085 18.849)" fill="#f1830a"/>
          <rect id="Rectangle_323" data-name="Rectangle 323" width="0.638" height="40.142" transform="translate(343.723 18.849)" fill="#f1820b"/>
          <rect id="Rectangle_324" data-name="Rectangle 324" width="0.638" height="40.142" transform="translate(344.36 18.849)" fill="#f1810b"/>
          <rect id="Rectangle_325" data-name="Rectangle 325" width="0.638" height="40.142" transform="translate(344.998 18.849)" fill="#f0800b"/>
          <rect id="Rectangle_326" data-name="Rectangle 326" width="0.638" height="40.142" transform="translate(345.636 18.849)" fill="#f07f0b"/>
          <rect id="Rectangle_327" data-name="Rectangle 327" width="0.638" height="40.142" transform="translate(346.273 18.849)" fill="#f07e0b"/>
          <rect id="Rectangle_328" data-name="Rectangle 328" width="0.638" height="40.142" transform="translate(346.911 18.849)" fill="#f07d0b"/>
          <rect id="Rectangle_329" data-name="Rectangle 329" width="0.638" height="40.142" transform="translate(347.549 18.849)" fill="#f07c0c"/>
          <rect id="Rectangle_330" data-name="Rectangle 330" width="0.638" height="40.142" transform="translate(348.186 18.849)" fill="#f07b0c"/>
          <rect id="Rectangle_331" data-name="Rectangle 331" width="0.638" height="40.142" transform="translate(348.824 18.849)" fill="#ef7a0c"/>
          <rect id="Rectangle_332" data-name="Rectangle 332" width="0.638" height="40.142" transform="translate(349.461 18.849)" fill="#ef790c"/>
          <rect id="Rectangle_333" data-name="Rectangle 333" width="0.638" height="40.142" transform="translate(350.099 18.849)" fill="#ef780c"/>
          <rect id="Rectangle_334" data-name="Rectangle 334" width="0.638" height="40.142" transform="translate(350.737 18.849)" fill="#ef770d"/>
          <rect id="Rectangle_335" data-name="Rectangle 335" width="0.638" height="40.142" transform="translate(351.374 18.849)" fill="#ef760d"/>
          <rect id="Rectangle_336" data-name="Rectangle 336" width="0.638" height="40.142" transform="translate(352.012 18.849)" fill="#ee750d"/>
          <rect id="Rectangle_337" data-name="Rectangle 337" width="0.638" height="40.142" transform="translate(352.65 18.849)" fill="#ee740d"/>
          <rect id="Rectangle_338" data-name="Rectangle 338" width="0.638" height="40.142" transform="translate(353.287 18.849)" fill="#ee730d"/>
          <rect id="Rectangle_339" data-name="Rectangle 339" width="0.638" height="40.142" transform="translate(353.925 18.849)" fill="#ee720d"/>
          <rect id="Rectangle_340" data-name="Rectangle 340" width="0.638" height="40.142" transform="translate(354.563 18.849)" fill="#ee710e"/>
          <rect id="Rectangle_341" data-name="Rectangle 341" width="0.638" height="40.142" transform="translate(355.2 18.849)" fill="#ee700e"/>
          <rect id="Rectangle_342" data-name="Rectangle 342" width="0.638" height="40.142" transform="translate(355.838 18.849)" fill="#ed6f0e"/>
          <rect id="Rectangle_343" data-name="Rectangle 343" width="0.638" height="40.142" transform="translate(356.476 18.849)" fill="#ed6e0e"/>
          <rect id="Rectangle_344" data-name="Rectangle 344" width="0.638" height="40.142" transform="translate(357.113 18.849)" fill="#ed6d0e"/>
          <rect id="Rectangle_345" data-name="Rectangle 345" width="0.638" height="40.142" transform="translate(357.751 18.849)" fill="#ed6c0e"/>
          <rect id="Rectangle_346" data-name="Rectangle 346" width="0.638" height="40.142" transform="translate(358.389 18.849)" fill="#ed6b0f"/>
          <rect id="Rectangle_347" data-name="Rectangle 347" width="0.638" height="40.142" transform="translate(359.026 18.849)" fill="#ec6a0f"/>
          <rect id="Rectangle_348" data-name="Rectangle 348" width="0.638" height="40.142" transform="translate(359.664 18.849)" fill="#ec690f"/>
          <rect id="Rectangle_349" data-name="Rectangle 349" width="0.638" height="40.142" transform="translate(360.302 18.849)" fill="#ec680f"/>
          <rect id="Rectangle_350" data-name="Rectangle 350" width="0.638" height="40.142" transform="translate(360.939 18.849)" fill="#ec670f"/>
          <rect id="Rectangle_351" data-name="Rectangle 351" width="0.638" height="40.142" transform="translate(361.577 18.849)" fill="#ec660f"/>
          <rect id="Rectangle_352" data-name="Rectangle 352" width="0.638" height="40.142" transform="translate(362.214 18.849)" fill="#ec6510"/>
          <rect id="Rectangle_353" data-name="Rectangle 353" width="0.638" height="40.142" transform="translate(362.852 18.849)" fill="#eb6410"/>
          <rect id="Rectangle_354" data-name="Rectangle 354" width="0.638" height="40.142" transform="translate(363.49 18.849)" fill="#eb6310"/>
          <rect id="Rectangle_355" data-name="Rectangle 355" width="0.638" height="40.142" transform="translate(364.127 18.849)" fill="#eb6210"/>
          <rect id="Rectangle_356" data-name="Rectangle 356" width="0.143" height="40.142" transform="translate(364.765 18.849)" fill="#eb6110"/>
          <path id="Path_125" data-name="Path 125" d="M304.826,17v0Z" fill="#fcc000"/>
          <rect id="Rectangle_357" data-name="Rectangle 357" width="0.638" height="66.652" transform="translate(304.826 17)" fill="#fcc000"/>
          <rect id="Rectangle_358" data-name="Rectangle 358" width="0.638" height="66.652" transform="translate(305.464 17)" fill="#fcbf00"/>
          <rect id="Rectangle_359" data-name="Rectangle 359" width="0.638" height="66.652" transform="translate(306.101 17)" fill="#fcbe00"/>
          <rect id="Rectangle_360" data-name="Rectangle 360" width="0.638" height="66.652" transform="translate(306.739 17)" fill="#fbbd01"/>
          <rect id="Rectangle_361" data-name="Rectangle 361" width="0.638" height="66.652" transform="translate(307.377 17)" fill="#fbbc01"/>
          <rect id="Rectangle_362" data-name="Rectangle 362" width="0.638" height="66.652" transform="translate(308.014 17)" fill="#fbbb01"/>
          <rect id="Rectangle_363" data-name="Rectangle 363" width="0.638" height="66.652" transform="translate(308.652 17)" fill="#fbba01"/>
          <rect id="Rectangle_364" data-name="Rectangle 364" width="0.638" height="66.652" transform="translate(309.29 17)" fill="#fbb901"/>
          <rect id="Rectangle_365" data-name="Rectangle 365" width="0.638" height="66.652" transform="translate(309.927 17)" fill="#fbb801"/>
          <rect id="Rectangle_366" data-name="Rectangle 366" width="0.638" height="66.652" transform="translate(310.565 17)" fill="#fab702"/>
          <rect id="Rectangle_367" data-name="Rectangle 367" width="0.638" height="66.652" transform="translate(311.203 17)" fill="#fab602"/>
          <rect id="Rectangle_368" data-name="Rectangle 368" width="0.638" height="66.652" transform="translate(311.84 17)" fill="#fab502"/>
          <rect id="Rectangle_369" data-name="Rectangle 369" width="0.638" height="66.652" transform="translate(312.478 17)" fill="#fab402"/>
          <rect id="Rectangle_370" data-name="Rectangle 370" width="0.638" height="66.652" transform="translate(313.116 17)" fill="#fab302"/>
          <rect id="Rectangle_371" data-name="Rectangle 371" width="0.638" height="66.652" transform="translate(313.753 17)" fill="#f9b202"/>
          <rect id="Rectangle_372" data-name="Rectangle 372" width="0.638" height="66.652" transform="translate(314.391 17)" fill="#f9b103"/>
          <rect id="Rectangle_373" data-name="Rectangle 373" width="0.638" height="66.652" transform="translate(315.028 17)" fill="#f9b003"/>
          <rect id="Rectangle_374" data-name="Rectangle 374" width="0.638" height="66.652" transform="translate(315.666 17)" fill="#f9af03"/>
          <rect id="Rectangle_375" data-name="Rectangle 375" width="0.638" height="66.652" transform="translate(316.304 17)" fill="#f9ae03"/>
          <rect id="Rectangle_376" data-name="Rectangle 376" width="0.638" height="66.652" transform="translate(316.941 17)" fill="#f9ad03"/>
          <rect id="Rectangle_377" data-name="Rectangle 377" width="0.638" height="66.652" transform="translate(317.579 17)" fill="#f8ac03"/>
          <rect id="Rectangle_378" data-name="Rectangle 378" width="0.638" height="66.652" transform="translate(318.217 17)" fill="#f8ab04"/>
          <rect id="Rectangle_379" data-name="Rectangle 379" width="0.638" height="66.652" transform="translate(318.854 17)" fill="#f8aa04"/>
          <rect id="Rectangle_380" data-name="Rectangle 380" width="0.638" height="66.652" transform="translate(319.492 17)" fill="#f8a904"/>
          <rect id="Rectangle_381" data-name="Rectangle 381" width="0.638" height="66.652" transform="translate(320.13 17)" fill="#f8a804"/>
          <rect id="Rectangle_382" data-name="Rectangle 382" width="0.638" height="66.652" transform="translate(320.767 17)" fill="#f7a704"/>
          <rect id="Rectangle_383" data-name="Rectangle 383" width="0.638" height="66.652" transform="translate(321.405 17)" fill="#f7a605"/>
          <rect id="Rectangle_384" data-name="Rectangle 384" width="0.638" height="66.652" transform="translate(322.043 17)" fill="#f7a505"/>
          <rect id="Rectangle_385" data-name="Rectangle 385" width="0.638" height="66.652" transform="translate(322.68 17)" fill="#f7a405"/>
          <rect id="Rectangle_386" data-name="Rectangle 386" width="0.638" height="66.652" transform="translate(323.318 17)" fill="#f7a305"/>
          <rect id="Rectangle_387" data-name="Rectangle 387" width="0.638" height="66.652" transform="translate(323.956 17)" fill="#f7a205"/>
          <rect id="Rectangle_388" data-name="Rectangle 388" width="0.638" height="66.652" transform="translate(324.593 17)" fill="#f6a105"/>
          <rect id="Rectangle_389" data-name="Rectangle 389" width="0.638" height="66.652" transform="translate(325.231 17)" fill="#f6a006"/>
          <rect id="Rectangle_390" data-name="Rectangle 390" width="0.638" height="66.652" transform="translate(325.868 17)" fill="#f69f06"/>
          <rect id="Rectangle_391" data-name="Rectangle 391" width="0.638" height="66.652" transform="translate(326.506 17)" fill="#f69e06"/>
          <rect id="Rectangle_392" data-name="Rectangle 392" width="0.638" height="66.652" transform="translate(327.144 17)" fill="#f69d06"/>
          <rect id="Rectangle_393" data-name="Rectangle 393" width="0.638" height="66.652" transform="translate(327.781 17)" fill="#f59c06"/>
          <rect id="Rectangle_394" data-name="Rectangle 394" width="0.638" height="66.652" transform="translate(328.419 17)" fill="#f59b06"/>
          <rect id="Rectangle_395" data-name="Rectangle 395" width="0.638" height="66.652" transform="translate(329.057 17)" fill="#f59a07"/>
          <rect id="Rectangle_396" data-name="Rectangle 396" width="0.638" height="66.652" transform="translate(329.694 17)" fill="#f59907"/>
          <rect id="Rectangle_397" data-name="Rectangle 397" width="0.638" height="66.652" transform="translate(330.332 17)" fill="#f59807"/>
          <rect id="Rectangle_398" data-name="Rectangle 398" width="0.638" height="66.652" transform="translate(330.97 17)" fill="#f59707"/>
          <rect id="Rectangle_399" data-name="Rectangle 399" width="0.638" height="66.652" transform="translate(331.607 17)" fill="#f49607"/>
          <rect id="Rectangle_400" data-name="Rectangle 400" width="0.638" height="66.652" transform="translate(332.245 17)" fill="#f49507"/>
          <rect id="Rectangle_401" data-name="Rectangle 401" width="0.638" height="66.652" transform="translate(332.883 17)" fill="#f49408"/>
          <rect id="Rectangle_402" data-name="Rectangle 402" width="0.638" height="66.652" transform="translate(333.52 17)" fill="#f49308"/>
          <rect id="Rectangle_403" data-name="Rectangle 403" width="0.638" height="66.652" transform="translate(334.158 17)" fill="#f49208"/>
          <rect id="Rectangle_404" data-name="Rectangle 404" width="0.638" height="66.652" transform="translate(334.796 17)" fill="#f39108"/>
          <rect id="Rectangle_405" data-name="Rectangle 405" width="0.638" height="66.652" transform="translate(335.433 17)" fill="#f39008"/>
          <rect id="Rectangle_406" data-name="Rectangle 406" width="0.638" height="66.652" transform="translate(336.071 17)" fill="#f38f09"/>
          <rect id="Rectangle_407" data-name="Rectangle 407" width="0.638" height="66.652" transform="translate(336.708 17)" fill="#f38e09"/>
          <rect id="Rectangle_408" data-name="Rectangle 408" width="0.638" height="66.652" transform="translate(337.346 17)" fill="#f38d09"/>
          <rect id="Rectangle_409" data-name="Rectangle 409" width="0.638" height="66.652" transform="translate(337.984 17)" fill="#f38c09"/>
          <rect id="Rectangle_410" data-name="Rectangle 410" width="0.638" height="66.652" transform="translate(338.621 17)" fill="#f28b09"/>
          <rect id="Rectangle_411" data-name="Rectangle 411" width="0.638" height="66.652" transform="translate(339.259 17)" fill="#f28a09"/>
          <rect id="Rectangle_412" data-name="Rectangle 412" width="0.638" height="66.652" transform="translate(339.897 17)" fill="#f2890a"/>
          <rect id="Rectangle_413" data-name="Rectangle 413" width="0.638" height="66.652" transform="translate(340.534 17)" fill="#f2880a"/>
          <rect id="Rectangle_414" data-name="Rectangle 414" width="0.638" height="66.652" transform="translate(341.172 17)" fill="#f2870a"/>
          <rect id="Rectangle_415" data-name="Rectangle 415" width="0.638" height="66.652" transform="translate(341.81 17)" fill="#f1850a"/>
          <rect id="Rectangle_416" data-name="Rectangle 416" width="0.638" height="66.652" transform="translate(342.447 17)" fill="#f1840a"/>
          <rect id="Rectangle_417" data-name="Rectangle 417" width="0.638" height="66.652" transform="translate(343.085 17)" fill="#f1830a"/>
          <rect id="Rectangle_418" data-name="Rectangle 418" width="0.638" height="66.652" transform="translate(343.723 17)" fill="#f1820b"/>
          <rect id="Rectangle_419" data-name="Rectangle 419" width="0.638" height="66.652" transform="translate(344.36 17)" fill="#f1810b"/>
          <rect id="Rectangle_420" data-name="Rectangle 420" width="0.638" height="66.652" transform="translate(344.998 17)" fill="#f0800b"/>
          <rect id="Rectangle_421" data-name="Rectangle 421" width="0.638" height="66.652" transform="translate(345.636 17)" fill="#f07f0b"/>
          <rect id="Rectangle_422" data-name="Rectangle 422" width="0.638" height="66.652" transform="translate(346.273 17)" fill="#f07e0b"/>
          <rect id="Rectangle_423" data-name="Rectangle 423" width="0.638" height="66.652" transform="translate(346.911 17)" fill="#f07d0b"/>
          <rect id="Rectangle_424" data-name="Rectangle 424" width="0.638" height="66.652" transform="translate(347.549 17)" fill="#f07c0c"/>
          <rect id="Rectangle_425" data-name="Rectangle 425" width="0.638" height="66.652" transform="translate(348.186 17)" fill="#f07b0c"/>
          <rect id="Rectangle_426" data-name="Rectangle 426" width="0.638" height="66.652" transform="translate(348.824 17)" fill="#ef7a0c"/>
          <rect id="Rectangle_427" data-name="Rectangle 427" width="0.638" height="66.652" transform="translate(349.461 17)" fill="#ef790c"/>
          <rect id="Rectangle_428" data-name="Rectangle 428" width="0.638" height="66.652" transform="translate(350.099 17)" fill="#ef780c"/>
          <rect id="Rectangle_429" data-name="Rectangle 429" width="0.638" height="66.652" transform="translate(350.737 17)" fill="#ef770d"/>
          <rect id="Rectangle_430" data-name="Rectangle 430" width="0.638" height="66.652" transform="translate(351.374 17)" fill="#ef760d"/>
          <rect id="Rectangle_431" data-name="Rectangle 431" width="0.638" height="66.652" transform="translate(352.012 17)" fill="#ee750d"/>
          <rect id="Rectangle_432" data-name="Rectangle 432" width="0.638" height="66.652" transform="translate(352.65 17)" fill="#ee740d"/>
          <rect id="Rectangle_433" data-name="Rectangle 433" width="0.638" height="66.652" transform="translate(353.287 17)" fill="#ee730d"/>
          <rect id="Rectangle_434" data-name="Rectangle 434" width="0.638" height="66.652" transform="translate(353.925 17)" fill="#ee720d"/>
          <rect id="Rectangle_435" data-name="Rectangle 435" width="0.638" height="66.652" transform="translate(354.563 17)" fill="#ee710e"/>
          <rect id="Rectangle_436" data-name="Rectangle 436" width="0.638" height="66.652" transform="translate(355.2 17)" fill="#ee700e"/>
          <rect id="Rectangle_437" data-name="Rectangle 437" width="0.638" height="66.652" transform="translate(355.838 17)" fill="#ed6f0e"/>
          <rect id="Rectangle_438" data-name="Rectangle 438" width="0.638" height="66.652" transform="translate(356.476 17)" fill="#ed6e0e"/>
          <rect id="Rectangle_439" data-name="Rectangle 439" width="0.638" height="66.652" transform="translate(357.113 17)" fill="#ed6d0e"/>
          <rect id="Rectangle_440" data-name="Rectangle 440" width="0.638" height="66.652" transform="translate(357.751 17)" fill="#ed6c0e"/>
          <rect id="Rectangle_441" data-name="Rectangle 441" width="0.638" height="66.652" transform="translate(358.389 17)" fill="#ed6b0f"/>
          <rect id="Rectangle_442" data-name="Rectangle 442" width="0.638" height="66.652" transform="translate(359.026 17)" fill="#ec6a0f"/>
          <rect id="Rectangle_443" data-name="Rectangle 443" width="0.638" height="66.652" transform="translate(359.664 17)" fill="#ec690f"/>
          <rect id="Rectangle_444" data-name="Rectangle 444" width="0.638" height="66.652" transform="translate(360.302 17)" fill="#ec680f"/>
          <rect id="Rectangle_445" data-name="Rectangle 445" width="0.638" height="66.652" transform="translate(360.939 17)" fill="#ec670f"/>
          <rect id="Rectangle_446" data-name="Rectangle 446" width="0.638" height="66.652" transform="translate(361.577 17)" fill="#ec660f"/>
          <rect id="Rectangle_447" data-name="Rectangle 447" width="0.638" height="66.652" transform="translate(362.214 17)" fill="#ec6510"/>
          <rect id="Rectangle_448" data-name="Rectangle 448" width="0.638" height="66.652" transform="translate(362.852 17)" fill="#eb6410"/>
          <rect id="Rectangle_449" data-name="Rectangle 449" width="0.638" height="66.652" transform="translate(363.49 17)" fill="#eb6310"/>
          <rect id="Rectangle_450" data-name="Rectangle 450" width="0.638" height="66.652" transform="translate(364.127 17)" fill="#eb6210"/>
          <rect id="Rectangle_451" data-name="Rectangle 451" width="0.638" height="66.652" transform="translate(364.765 17)" fill="#eb6110"/>
          <rect id="Rectangle_452" data-name="Rectangle 452" width="0.638" height="66.652" transform="translate(365.403 17)" fill="#eb6011"/>
          <rect id="Rectangle_453" data-name="Rectangle 453" width="0.638" height="66.652" transform="translate(366.04 17)" fill="#ea5f11"/>
          <rect id="Rectangle_454" data-name="Rectangle 454" width="0.638" height="66.652" transform="translate(366.678 17)" fill="#ea5e11"/>
          <rect id="Rectangle_455" data-name="Rectangle 455" width="0.638" height="66.652" transform="translate(367.316 17)" fill="#ea5d11"/>
          <rect id="Rectangle_456" data-name="Rectangle 456" width="0.638" height="66.652" transform="translate(367.953 17)" fill="#ea5c11"/>
          <rect id="Rectangle_457" data-name="Rectangle 457" width="0.638" height="66.652" transform="translate(368.591 17)" fill="#ea5b11"/>
          <rect id="Rectangle_458" data-name="Rectangle 458" width="0.638" height="66.652" transform="translate(369.229 17)" fill="#ea5a12"/>
          <rect id="Rectangle_459" data-name="Rectangle 459" width="0.638" height="66.652" transform="translate(369.866 17)" fill="#e95912"/>
          <rect id="Rectangle_460" data-name="Rectangle 460" width="0.638" height="66.652" transform="translate(370.504 17)" fill="#e95812"/>
          <rect id="Rectangle_461" data-name="Rectangle 461" width="0.638" height="66.652" transform="translate(371.142 17)" fill="#e95712"/>
          <rect id="Rectangle_462" data-name="Rectangle 462" width="0.638" height="66.652" transform="translate(371.779 17)" fill="#e95612"/>
          <rect id="Rectangle_463" data-name="Rectangle 463" width="0.638" height="66.652" transform="translate(372.417 17)" fill="#e95512"/>
          <rect id="Rectangle_464" data-name="Rectangle 464" width="0.638" height="66.652" transform="translate(373.054 17)" fill="#e85413"/>
          <rect id="Rectangle_465" data-name="Rectangle 465" width="0.638" height="66.652" transform="translate(373.692 17)" fill="#e85313"/>
          <rect id="Rectangle_466" data-name="Rectangle 466" width="0.638" height="66.652" transform="translate(374.33 17)" fill="#e85213"/>
          <rect id="Rectangle_467" data-name="Rectangle 467" width="0.638" height="66.652" transform="translate(374.967 17)" fill="#e85113"/>
          <rect id="Rectangle_468" data-name="Rectangle 468" width="0.638" height="66.652" transform="translate(375.605 17)" fill="#e85013"/>
          <rect id="Rectangle_469" data-name="Rectangle 469" width="0.638" height="66.652" transform="translate(376.243 17)" fill="#e84f13"/>
          <rect id="Rectangle_470" data-name="Rectangle 470" width="0.638" height="66.652" transform="translate(376.88 17)" fill="#e74e14"/>
          <rect id="Rectangle_471" data-name="Rectangle 471" width="0.638" height="66.652" transform="translate(377.518 17)" fill="#e74d14"/>
          <rect id="Rectangle_472" data-name="Rectangle 472" width="0.638" height="66.652" transform="translate(378.156 17)" fill="#e74c14"/>
          <path id="Path_126" data-name="Path 126" d="M378.793,83.652v0Z" fill="#e74c14"/>
        </g>
      </g>
    </g>
    <g id="Group_15" data-name="Group 15">
      <path id="Path_128" data-name="Path 128" d="M356.269,29.016h-41.49a.925.925,0,0,1,0-1.849h41.49a.925.925,0,1,1,0,1.849Z" fill="url(#linear-gradient)"/>
    </g>
    <g id="Group_16" data-name="Group 16">
      <path id="Path_129" data-name="Path 129" d="M356.269,36.205h-41.49a.925.925,0,0,1,0-1.849h41.49a.925.925,0,1,1,0,1.849Z" fill="url(#linear-gradient-2)"/>
    </g>
    <g id="Group_17" data-name="Group 17">
      <path id="Path_130" data-name="Path 130" d="M356.269,43.394h-41.49a.925.925,0,0,1,0-1.849h41.49a.925.925,0,1,1,0,1.849Z" fill="url(#linear-gradient)"/>
    </g>
    <g id="Group_18" data-name="Group 18">
      <path id="Path_131" data-name="Path 131" d="M367.977,65.166h-41.49a.924.924,0,1,1,0-1.849h41.49a.924.924,0,0,1,0,1.849Z" fill="url(#linear-gradient-2)"/>
    </g>
  </g>
</svg>
