<svg xmlns="http://www.w3.org/2000/svg" xmlns:xlink="http://www.w3.org/1999/xlink" width="52.812" height="86.185" viewBox="0 0 52.812 86.185">
  <defs>
    <linearGradient id="linear-gradient" y1="0.5" x2="1" y2="0.5" gradientUnits="objectBoundingBox">
      <stop offset="0" stop-color="#fcc000"/>
      <stop offset="1" stop-color="#e74c14"/>
    </linearGradient>
    <linearGradient id="linear-gradient-5" x1="0" y1="0.5" x2="1" y2="0.5" xlink:href="#linear-gradient"/>
  </defs>
  <g id="Group_7" data-name="Group 7" transform="translate(-163.188 -277.61)">
    <path id="Path_111" data-name="Path 111" d="M190.135,292.977a1.188,1.188,0,0,0,.843-.349l7.148-7.147a1.193,1.193,0,0,0-1.687-1.687l-7.148,7.147a1.192,1.192,0,0,0,.844,2.036Z" fill="url(#linear-gradient)"/>
    <path id="Path_112" data-name="Path 112" d="M176.519,292.628a1.193,1.193,0,1,0,1.687-1.687l-7.147-7.147a1.193,1.193,0,0,0-1.687,1.687Z" fill="url(#linear-gradient)"/>
    <path id="Path_113" data-name="Path 113" d="M175.91,298.171a1.193,1.193,0,0,0-1.193-1.193H164.381a1.193,1.193,0,1,0,0,2.385h10.336A1.193,1.193,0,0,0,175.91,298.171Z" fill="url(#linear-gradient)"/>
    <path id="Path_114" data-name="Path 114" d="M191.587,298.171a1.193,1.193,0,0,0,1.193,1.192h10.336a1.193,1.193,0,1,0,0-2.385H192.78A1.193,1.193,0,0,0,191.587,298.171Z" fill="url(#linear-gradient)"/>
    <path id="Path_115" data-name="Path 115" d="M183.749,290.332a1.193,1.193,0,0,0,1.192-1.193V278.8a1.192,1.192,0,1,0-2.385,0v10.336A1.193,1.193,0,0,0,183.749,290.332Z" fill="url(#linear-gradient-5)"/>
    <path id="Path_116" data-name="Path 116" d="M212.265,314.136l-.118-.041a5.493,5.493,0,0,0-5.45,1.139,5.57,5.57,0,0,0-3.237-3l-.124-.043a5.465,5.465,0,0,0-4.984.76,5.7,5.7,0,0,0-.56.464,5.578,5.578,0,0,0-3.149-2.795l-.118-.04a5.463,5.463,0,0,0-4.959.745V300a6.1,6.1,0,0,0-12.208,0l0,19.073a6.568,6.568,0,0,0-3.669-1.1c-2.377,0-4.806.512-4.806,4.315v18.171c0,.055,0,.1.006.167A23.559,23.559,0,0,0,216,340.447V319.434A5.609,5.609,0,0,0,212.265,314.136Zm1.348,26.311a21.172,21.172,0,0,1-42.341.122c0-.02-.006-.094-.007-.115V322.283c0-1.434.117-1.93,2.421-1.93a3.561,3.561,0,0,1,3.671,2.628v9.908a1.193,1.193,0,0,0,2.386,0V322.84l0-.023,0-22.819a3.718,3.718,0,0,1,7.436,0l0,22.842v6.224a1.192,1.192,0,1,0,2.385,0V315.932a3.24,3.24,0,0,1,1.366-2.657,3.113,3.113,0,0,1,2.834-.435l.087.03a3.221,3.221,0,0,1,2.139,3.047v1.132a1.26,1.26,0,0,0,.018.185c-.005.1-.018.206-.018.31v10.708a1.193,1.193,0,1,0,2.385,0V317.544a3.237,3.237,0,0,1,1.366-2.657,3.3,3.3,0,0,1,2.921-.4,3.219,3.219,0,0,1,2.138,3.047v12.629a1.193,1.193,0,0,0,2.386,0V319.449a3.237,3.237,0,0,1,1.366-2.656,3.1,3.1,0,0,1,2.833-.436l.088.03a3.221,3.221,0,0,1,2.138,3.047Z" fill="url(#linear-gradient)"/>
  </g>
</svg>
