<svg xmlns="http://www.w3.org/2000/svg" xmlns:xlink="http://www.w3.org/1999/xlink" width="73.738" height="77.024" viewBox="0 0 73.738 77.024">
  <defs>
    <linearGradient id="linear-gradient" y1="0.5" x2="1" y2="0.5" gradientUnits="objectBoundingBox">
      <stop offset="0" stop-color="#fcc000"/>
      <stop offset="1" stop-color="#e74c14"/>
    </linearGradient>
  </defs>
  <path id="Path_3" data-name="Path 3" d="M379.005,576.225a.874.874,0,0,0-.22-.217l-35.739-24.032a.926.926,0,0,0-1.031,0l-36.088,24.176h0a.927.927,0,0,0-.368.738v43.768a8.2,8.2,0,0,0,8.185,8.185h57.368a8.2,8.2,0,0,0,8.185-8.185V576.89A.92.92,0,0,0,379.005,576.225Zm-36.474,29.533-31.478-26.592,31.222,8.972a.929.929,0,0,0,.512,0l31.314-9.051Zm0-51.9,33.73,22.681-33.731,9.75-33.789-9.71Zm-35.123,24.648,30.382,25.668-28.841,20.615a6.3,6.3,0,0,1-1.541-4.13Zm6.336,48.49a6.3,6.3,0,0,1-3.35-.968l28.734-20.538a.817.817,0,0,0,.108-.1l2.7,2.28a.922.922,0,0,0,1.193,0l2.226-1.881,28.666,20.489a6.286,6.286,0,0,1-2.907.713Zm61.848-1.861L346.81,604.562l30.638-25.884v41.98A6.316,6.316,0,0,1,375.592,625.134Z" transform="translate(-305.559 -551.819)" fill="url(#linear-gradient)"/>
</svg>
