<svg xmlns="http://www.w3.org/2000/svg" xmlns:xlink="http://www.w3.org/1999/xlink" width="66.167" height="66.167" viewBox="0 0 66.167 66.167">
  <defs>
    <linearGradient id="linear-gradient" y1="0.5" x2="1" y2="0.5" gradientUnits="objectBoundingBox">
      <stop offset="0" stop-color="#fcc000"/>
      <stop offset="1" stop-color="#e74c14"/>
    </linearGradient>
  </defs>
  <path id="Path_110" data-name="Path 110" d="M374.706,295.913a12.646,12.646,0,0,0-17.864,0l-9.821,9.821a12.639,12.639,0,0,0-.447,17.37l-3.463,3.464a12.64,12.64,0,0,0-17.371.447l-9.821,9.821A12.632,12.632,0,0,0,333.783,354.7l9.821-9.821a12.644,12.644,0,0,0,1.171-16.491l3.62-3.619a12.642,12.642,0,0,0,16.49-1.171l9.821-9.821a12.665,12.665,0,0,0,0-17.864Zm-29.881,40.034a10.093,10.093,0,0,1-2.964,7.19l-9.82,9.82a10.167,10.167,0,0,1-14.379-14.379l9.821-9.82a10.185,10.185,0,0,1,13.885-.448l-5.107,5.107A1.232,1.232,0,1,0,338,335.16l5.011-5.012A10.106,10.106,0,0,1,344.825,335.947Zm28.138-23.913-9.82,9.821a10.2,10.2,0,0,1-12.988,1.154l5.8-5.8a1.232,1.232,0,1,0-1.743-1.743l-5.891,5.892a10.184,10.184,0,0,1,.447-13.885l9.82-9.821a10.167,10.167,0,0,1,14.379,14.378Z" transform="translate(-312.225 -292.219)" fill="url(#linear-gradient)"/>
</svg>
