<svg xmlns="http://www.w3.org/2000/svg" xmlns:xlink="http://www.w3.org/1999/xlink" width="75.634" height="74.07" viewBox="0 0 75.634 74.07">
  <defs>
    <linearGradient id="linear-gradient" y1="0.5" x2="1" y2="0.5" gradientUnits="objectBoundingBox">
      <stop offset="0" stop-color="#fcc000"/>
      <stop offset="1" stop-color="#e74c14"/>
    </linearGradient>
  </defs>
  <g id="Group_1" data-name="Group 1" transform="translate(-154.675 -553.278)">
    <path id="Path_4" data-name="Path 4" d="M216.092,561.145h13.292a.924.924,0,1,0,0-1.849H213.306a.925.925,0,0,0-.719.344c-.015.018-.024.039-.037.058s-.023.025-.033.04-.024.047-.037.07l0,.01a.916.916,0,0,0-.023.822l3.294,15.255a.925.925,0,0,0,.9.729.886.886,0,0,0,.2-.021.924.924,0,0,0,.708-1.1l-2.824-13.077A35.185,35.185,0,0,1,193.274,625.5a.924.924,0,0,0,0,1.848,37.033,37.033,0,0,0,22.818-66.2Z" fill="url(#linear-gradient)"/>
    <path id="Path_5" data-name="Path 5" d="M172.551,618.942l-3.313-15.34a.924.924,0,0,0-1.807.39l2.784,12.889a34.857,34.857,0,0,1-12.128-26.568,35.215,35.215,0,0,1,45.651-33.6.925.925,0,0,0,.549-1.766,37.036,37.036,0,0,0-35.2,63.41H155.6a.924.924,0,1,0,0,1.848h16.078a.924.924,0,0,0,.719-.343c.008-.01.012-.022.02-.032l.009-.01a.7.7,0,0,0,.05-.083c.011-.02.025-.038.035-.058A.924.924,0,0,0,172.551,618.942Z" fill="url(#linear-gradient)"/>
    <path id="Path_6" data-name="Path 6" d="M194.484,601.933v-3A5.145,5.145,0,0,0,199,593.594c0-5.889-7.93-5.189-7.93-8.689a2.222,2.222,0,0,1,2.536-2.332,4.647,4.647,0,0,1,3.383,1.545l1.72-1.953a6.787,6.787,0,0,0-4.228-2.275v-2.915h-2.332v2.974a4.957,4.957,0,0,0-4.315,5.1c0,5.482,7.93,4.928,7.93,8.777,0,1.574-.933,2.507-2.828,2.507a6.986,6.986,0,0,1-4.315-1.808l-1.517,2.274a9.027,9.027,0,0,0,5.045,2.217v2.915Z" fill="url(#linear-gradient)"/>
    <path id="Path_7" data-name="Path 7" d="M214.943,589.725a21.669,21.669,0,1,0-21.669,21.67A21.694,21.694,0,0,0,214.943,589.725Zm-41.49,0a19.82,19.82,0,1,1,19.821,19.821A19.843,19.843,0,0,1,173.453,589.725Z" fill="url(#linear-gradient)"/>
  </g>
</svg>
