<svg xmlns="http://www.w3.org/2000/svg" xmlns:xlink="http://www.w3.org/1999/xlink" width="73.738" height="64.289" viewBox="0 0 73.738 64.289">
  <defs>
    <linearGradient id="linear-gradient" x1="0.077" y1="0.109" x2="1.15" y2="1.101" gradientUnits="objectBoundingBox">
      <stop offset="0" stop-color="#fcc000"/>
      <stop offset="1" stop-color="#e74c14"/>
    </linearGradient>
    <linearGradient id="linear-gradient-2" x1="-0.018" y1="-1.075" x2="1.684" y2="4.1" xlink:href="#linear-gradient"/>
    <linearGradient id="linear-gradient-3" x1="-0.173" y1="-1.547" x2="1.529" y2="3.628" xlink:href="#linear-gradient"/>
    <linearGradient id="linear-gradient-4" x1="-0.348" y1="-2.078" x2="1.354" y2="3.097" xlink:href="#linear-gradient"/>
    <linearGradient id="linear-gradient-5" x1="-10.093" y1="-8.153" x2="20.087" y2="16.5" xlink:href="#linear-gradient"/>
    <linearGradient id="linear-gradient-6" x1="-10.803" y1="-8.732" x2="19.377" y2="15.921" xlink:href="#linear-gradient"/>
    <linearGradient id="linear-gradient-7" x1="-11.512" y1="-9.312" x2="18.668" y2="15.341" xlink:href="#linear-gradient"/>
    <linearGradient id="linear-gradient-8" x1="-12.221" y1="-9.891" x2="17.958" y2="14.762" xlink:href="#linear-gradient"/>
    <linearGradient id="linear-gradient-9" x1="-12.931" y1="-10.471" x2="17.249" y2="14.182" xlink:href="#linear-gradient"/>
    <linearGradient id="linear-gradient-10" x1="-9.262" y1="-5.651" x2="27.059" y2="17.151" xlink:href="#linear-gradient"/>
    <linearGradient id="linear-gradient-11" x1="-6.178" y1="-6.379" x2="16.265" y2="16.982" xlink:href="#linear-gradient"/>
    <linearGradient id="linear-gradient-12" x1="-12.565" y1="-6.88" x2="27.751" y2="15.922" xlink:href="#linear-gradient"/>
    <linearGradient id="linear-gradient-13" x1="-109.583" y1="-7.635" x2="214.519" y2="16.316" xlink:href="#linear-gradient"/>
    <linearGradient id="linear-gradient-14" x1="-57.666" y1="-46.884" x2="120.669" y2="98.392" xlink:href="#linear-gradient"/>
    <linearGradient id="linear-gradient-15" x1="-53.852" y1="-4.946" x2="102.94" y2="10.782" xlink:href="#linear-gradient"/>
  </defs>
  <g id="Group_22" data-name="Group 22" transform="translate(-156.31 -17)">
    <g id="Group_20" data-name="Group 20">
      <path id="Path_132" data-name="Path 132" d="M221.73,17h-57.1a8.328,8.328,0,0,0-8.319,8.319V72.971a8.328,8.328,0,0,0,8.319,8.318h57.1a8.327,8.327,0,0,0,8.318-8.318V25.319A8.327,8.327,0,0,0,221.73,17Zm6.47,55.971a6.478,6.478,0,0,1-6.47,6.47h-57.1a6.477,6.477,0,0,1-6.47-6.47V25.319a6.477,6.477,0,0,1,6.47-6.47h57.1a6.477,6.477,0,0,1,6.47,6.47Z" fill="url(#linear-gradient)"/>
      <path id="Path_133" data-name="Path 133" d="M215.517,28.4H170.843a.925.925,0,0,0-.925.924V39.8a.925.925,0,0,0,.925.924h44.674a.924.924,0,0,0,.924-.924V29.324A.924.924,0,0,0,215.517,28.4Zm-.925,10.475H171.767V30.248h42.825Z" fill="url(#linear-gradient-2)"/>
      <path id="Path_134" data-name="Path 134" d="M215.517,43.188H170.843a.925.925,0,0,0-.925.924V54.588a.925.925,0,0,0,.925.924h44.674a.924.924,0,0,0,.924-.924V44.112A.924.924,0,0,0,215.517,43.188Zm-.925,10.475H171.767V45.037h42.825Z" fill="url(#linear-gradient-3)"/>
      <path id="Path_135" data-name="Path 135" d="M210.279,59.825h-34.2a6.162,6.162,0,1,0,0,12.324h34.2a6.162,6.162,0,0,0,0-12.324Z" fill="url(#linear-gradient-4)"/>
      <path id="Path_136" data-name="Path 136" d="M186.824,49.866l-.7.9.421.266.481-1.042h.014l.443,1.035.466-.267-.709-.886v-.015l1.116.133v-.5l-1.116.148v-.015l.7-.924-.443-.252-.451,1.035h-.015l-.458-1.027-.451.258.7.9v.014l-1.087-.14v.5l1.094-.14Z" fill="url(#linear-gradient-5)"/>
      <path id="Path_137" data-name="Path 137" d="M189.892,49.866l-.7.9.421.266.481-1.042h.014l.443,1.035.466-.267-.709-.886v-.015l1.116.133v-.5l-1.116.148v-.015l.7-.924-.443-.252-.451,1.035H190.1l-.459-1.027-.451.258.7.9v.014l-1.087-.14v.5l1.094-.14Z" fill="url(#linear-gradient-6)"/>
      <path id="Path_138" data-name="Path 138" d="M192.961,49.866l-.7.9.421.266.481-1.042h.014l.443,1.035.466-.267-.709-.886v-.015l1.116.133v-.5l-1.116.148v-.015l.7-.924-.443-.252-.451,1.035h-.014l-.459-1.027-.451.258.7.9v.014l-1.087-.14v.5l1.094-.14Z" fill="url(#linear-gradient-7)"/>
      <path id="Path_139" data-name="Path 139" d="M196.029,49.866l-.7.9.421.266.481-1.042h.014l.443,1.035.466-.267-.709-.886v-.015l1.116.133v-.5l-1.116.148v-.015l.7-.924-.443-.252-.451,1.035h-.015l-.458-1.027-.451.258.7.9v.014l-1.087-.14v.5l1.094-.14Z" fill="url(#linear-gradient-8)"/>
      <path id="Path_140" data-name="Path 140" d="M199.1,49.866l-.7.9.421.266.481-1.042h.014l.443,1.035.466-.267-.709-.886v-.015l1.116.133v-.5l-1.116.148v-.015l.7-.924-.443-.252-.451,1.035h-.015l-.458-1.027-.451.258.7.9v.014L198,49.489v.5l1.094-.14Z" fill="url(#linear-gradient-9)"/>
      <path id="Path_141" data-name="Path 141" d="M188.433,36.323a1.492,1.492,0,0,0,.838-.261l-.1-.189a1.178,1.178,0,0,1-.716.239,1.046,1.046,0,0,1-1-1.154h1.919a1.22,1.22,0,0,0,.011-.2c0-.782-.388-1.232-1.02-1.232a1.416,1.416,0,0,0,.072,2.8Zm-.067-2.585c.477,0,.782.349.782,1.031h-1.7A1,1,0,0,1,188.366,33.738Z" fill="url(#linear-gradient-10)"/>
      <path id="Path_142" data-name="Path 142" d="M190.346,34.248a1.182,1.182,0,0,1,.8-.5c.411,0,.6.266.6.832v1.675h.244V34.248a1.16,1.16,0,0,1,.8-.5c.4,0,.593.266.593.832v1.675h.25V34.548c0-.688-.266-1.022-.8-1.022a1.34,1.34,0,0,0-.9.544.693.693,0,0,0-.738-.544,1.222,1.222,0,0,0-.838.478h-.017l-.022-.411h-.21v2.663h.244Z" fill="url(#linear-gradient-11)"/>
      <path id="Path_143" data-name="Path 143" d="M194.455,35.59a.7.7,0,0,0,.777.733,1.582,1.582,0,0,0,.943-.411h.011l.028.344h.205v-1.7c0-.572-.211-1.027-.843-1.027a1.78,1.78,0,0,0-.988.345l.112.183a1.468,1.468,0,0,1,.848-.311c.522,0,.638.438.627.843C194.993,34.719,194.455,35,194.455,35.59Zm1.72-.815v.9a1.4,1.4,0,0,1-.9.433.5.5,0,0,1-.561-.533C194.71,35.158,195.082,34.9,196.175,34.775Z" fill="url(#linear-gradient-12)"/>
      <rect id="Rectangle_473" data-name="Rectangle 473" width="0.244" height="2.663" transform="translate(197.372 33.593)" fill="url(#linear-gradient-13)"/>
      <path id="Path_144" data-name="Path 144" d="M197.5,32.95a.22.22,0,1,0,0-.439.22.22,0,1,0,0,.439Z" fill="url(#linear-gradient-14)"/>
      <path id="Path_145" data-name="Path 145" d="M198.97,36.323a.533.533,0,0,0,.177-.028l-.044-.2a.437.437,0,0,1-.1.011c-.066,0-.116-.055-.116-.172V32.268h-.245V35.9C198.642,36.189,198.753,36.323,198.97,36.323Z" fill="url(#linear-gradient-15)"/>
    </g>
    <g id="Group_21" data-name="Group 21">
      <path id="Path_146" data-name="Path 146" d="M183.521,67.99l-.778-1.365h-.582V67.99h-.414V64.758h1.016c.655,0,1.128.236,1.128.907a.886.886,0,0,1-.725.916l.824,1.409Zm-1.36-1.7h.543c.5,0,.778-.207.778-.625s-.276-.577-.778-.577h-.543Z" fill="#fff"/>
      <path id="Path_147" data-name="Path 147" d="M185.41,65.537c.611,0,.956.438.956,1.123a1.409,1.409,0,0,1-.015.222h-1.616a.8.8,0,0,0,.8.842,1.082,1.082,0,0,0,.6-.187l.143.266a1.426,1.426,0,0,1-.788.246,1.266,1.266,0,0,1-.074-2.512Zm.6,1.079c0-.488-.217-.759-.591-.759a.747.747,0,0,0-.69.759Z" fill="#fff"/>
      <path id="Path_148" data-name="Path 148" d="M187.855,65.537c.611,0,.956.438.956,1.123a1.409,1.409,0,0,1-.015.222H187.18a.8.8,0,0,0,.8.842,1.082,1.082,0,0,0,.6-.187l.143.266a1.426,1.426,0,0,1-.788.246,1.266,1.266,0,0,1-.074-2.512Zm.6,1.079c0-.488-.217-.759-.591-.759a.747.747,0,0,0-.69.759Z" fill="#fff"/>
      <path id="Path_149" data-name="Path 149" d="M189.4,65.6h.335l.034.344h.015a1.053,1.053,0,0,1,.744-.4.627.627,0,0,1,.66.458,1.133,1.133,0,0,1,.789-.458c.492,0,.729.325.729.935V67.99h-.4V66.527c0-.449-.143-.641-.443-.641a.88.88,0,0,0-.6.37V67.99h-.4V66.527c0-.449-.143-.641-.449-.641a.9.9,0,0,0-.6.37V67.99h-.4Z" fill="#fff"/>
      <path id="Path_150" data-name="Path 150" d="M193.489,64.482h.4v.956l-.01.433a1.183,1.183,0,0,1,.749-.334c.621,0,.951.477.951,1.216,0,.818-.488,1.3-1.035,1.3a1.08,1.08,0,0,1-.685-.3h-.015l-.034.237h-.326Zm.991,3.227c.394,0,.685-.359.685-.951,0-.527-.178-.881-.631-.881a.984.984,0,0,0-.64.325v1.256A.937.937,0,0,0,194.48,67.709Z" fill="#fff"/>
      <path id="Path_151" data-name="Path 151" d="M197.157,65.537a1.266,1.266,0,1,1-1.108,1.261A1.145,1.145,0,0,1,197.157,65.537Zm0,2.177c.414,0,.69-.37.69-.916s-.276-.927-.69-.927-.69.375-.69.927S196.748,67.714,197.157,67.714Z" fill="#fff"/>
      <path id="Path_152" data-name="Path 152" d="M198.9,64.482h.4v3.055c0,.128.054.177.113.177a.328.328,0,0,0,.088-.01l.054.306a.534.534,0,0,1-.231.039c-.305,0-.429-.192-.429-.542Z" fill="#fff"/>
      <path id="Path_153" data-name="Path 153" d="M200.09,67.448a1.075,1.075,0,0,0,.705.286c.315,0,.473-.168.473-.375,0-.246-.286-.355-.547-.453-.34-.123-.715-.286-.715-.69,0-.384.305-.679.823-.679a1.2,1.2,0,0,1,.744.27l-.192.257a.885.885,0,0,0-.547-.212c-.3,0-.438.162-.438.345,0,.221.26.31.532.414.344.127.729.271.729.724,0,.389-.311.714-.877.714a1.444,1.444,0,0,1-.892-.33Z" fill="#fff"/>
      <path id="Path_154" data-name="Path 154" d="M203.575,66.472c0-.305-.1-.6-.493-.6a1.279,1.279,0,0,0-.714.257l-.163-.281a1.778,1.778,0,0,1,.941-.31c.586,0,.833.388.833.985V67.99h-.335l-.035-.286h-.01a1.3,1.3,0,0,1-.793.345.652.652,0,0,1-.7-.68C202.1,66.847,202.555,66.586,203.575,66.472Zm-.656,1.252a.982.982,0,0,0,.656-.32v-.666c-.8.1-1.074.3-1.074.6A.367.367,0,0,0,202.919,67.724Z" fill="#fff"/>
      <path id="Path_155" data-name="Path 155" d="M204.743,65.6h.336l.034.433h.015a.819.819,0,0,1,.68-.492.6.6,0,0,1,.256.048l-.079.355a.681.681,0,0,0-.231-.039c-.2,0-.444.148-.606.552V67.99h-.4Z" fill="#fff"/>
    </g>
  </g>
</svg>
