<svg xmlns="http://www.w3.org/2000/svg" xmlns:xlink="http://www.w3.org/1999/xlink" width="85.814" height="46.358" viewBox="0 0 85.814 46.358">
  <defs>
    <linearGradient id="linear-gradient" y1="0.5" x2="1" y2="0.5" gradientUnits="objectBoundingBox">
      <stop offset="0" stop-color="#fcc000"/>
      <stop offset="1" stop-color="#e74c14"/>
    </linearGradient>
  </defs>
  <path id="Path_13" data-name="Path 13" d="M381.578,434.324a.807.807,0,0,0-.646-.324H318.4a1.275,1.275,0,0,0-1.078.91v13.562h-20.5a.809.809,0,1,0,0,1.617h20.5v5.862H301.857a.809.809,0,1,0,0,1.617h15.467v5.862h-20.5a.809.809,0,0,0,0,1.618h20.5v8.15a7.168,7.168,0,0,0,7.161,7.16h50.186a7.168,7.168,0,0,0,7.16-7.16V434.91A.808.808,0,0,0,381.578,434.324Zm-2.856,1.293-29.055,24.547-29.055-24.547Zm-59.781.7,26.58,22.455L320.29,476.811a5.516,5.516,0,0,1-1.349-3.613Zm5.544,42.419a5.506,5.506,0,0,1-2.931-.846l25.138-17.967a.811.811,0,0,0,.093-.082l2.361,1.994a.807.807,0,0,0,1.043,0l1.948-1.646,25.077,17.924a5.5,5.5,0,0,1-2.543.623Zm54.105-1.627-25.179-18,26.8-22.643V473.2A5.526,5.526,0,0,1,378.59,477.114Z" transform="translate(-296.017 -434)" fill="url(#linear-gradient)"/>
</svg>
