<svg xmlns="http://www.w3.org/2000/svg" xmlns:xlink="http://www.w3.org/1999/xlink" width="66.29" height="73.276" viewBox="0 0 66.29 73.276">
  <defs>
    <linearGradient id="linear-gradient" y1="0.5" x2="1" y2="0.5" gradientUnits="objectBoundingBox">
      <stop offset="0" stop-color="#fcc000"/>
      <stop offset="1" stop-color="#e74c14"/>
    </linearGradient>
  </defs>
  <g id="Group_28" data-name="Group 28" transform="translate(-17.71 -13.047)">
    <g id="Group_10" data-name="Group 10" transform="translate(0 -135)">
      <path id="Path_123" data-name="Path 123" d="M51.631,208.018a.933.933,0,0,1-.57-.194c-.56-.431-13.681-10.626-18.215-20.579a.838.838,0,0,1-.109-.18,38.965,38.965,0,0,1-2.908-17.534l.073-.861c.229-2.718.3-3.539,1.086-3.949.68-.355,1.308.012,2.036.433,1.39.808,3.97,2.3,9.593,2.042A7.716,7.716,0,0,0,48,164.661a18.224,18.224,0,0,0,2.017-2.789.934.934,0,0,1,1.651-.041,18.4,18.4,0,0,0,2.037,2.822,7.712,7.712,0,0,0,5.386,2.535c5.622.266,8.2-1.234,9.593-2.042.728-.422,1.356-.789,2.037-.434.787.411.857,1.232,1.085,3.951l.073.859a38.21,38.21,0,0,1-1.766,14.415c-.933,3.574-4.511,11.487-17.851,23.833A.929.929,0,0,1,51.631,208.018ZM34.364,186.127a.86.86,0,0,1,.1.173c3.732,8.389,14.429,17.383,17.117,19.555,12.51-11.707,15.859-19.065,16.74-22.433a36.454,36.454,0,0,0,1.7-13.74l-.073-.863c-.072-.851-.137-1.626-.206-2.129l-.12.07c-1.445.839-4.462,2.585-10.619,2.292a9.592,9.592,0,0,1-6.692-3.16,19.447,19.447,0,0,1-1.455-1.865A19.352,19.352,0,0,1,49.4,165.9a9.6,9.6,0,0,1-6.692,3.16c-6.161.294-9.174-1.452-10.62-2.292l-.119-.069c-.069.5-.134,1.277-.206,2.128l-.073.864A37.773,37.773,0,0,0,34.364,186.127Z" fill="url(#linear-gradient)"/>
    </g>
    <g id="Group_11" data-name="Group 11" transform="translate(0 -135)">
      <path id="Path_124" data-name="Path 124" d="M52.092,221.323a.929.929,0,0,1-.57-.194c-.889-.686-21.758-16.9-28.9-32.66a.809.809,0,0,1-.143-.217,61.475,61.475,0,0,1-4.588-27.676l.116-1.371c.354-4.208.448-5.339,1.434-5.853.814-.422,1.609.04,2.711.68,2.266,1.316,6.476,3.763,15.6,3.329a12.854,12.854,0,0,0,8.972-4.227,29.662,29.662,0,0,0,3.3-4.562.936.936,0,0,1,.782-.522.911.911,0,0,1,.872.476,29.661,29.661,0,0,0,3.315,4.6,12.862,12.862,0,0,0,8.973,4.227c9.111.434,13.331-2.013,15.6-3.33,1.1-.64,1.9-1.1,2.711-.679.986.513,1.081,1.644,1.435,5.851l.116,1.372a60.355,60.355,0,0,1-2.79,22.763c-3.465,13.257-19.221,29.344-28.3,37.749A.928.928,0,0,1,52.092,221.323Zm-28-34.052a.837.837,0,0,1,.136.214c6.193,13.92,24.242,28.816,27.818,31.677,20.33-18.943,25.766-30.891,27.193-36.351a58.573,58.573,0,0,0,2.724-22.088l-.116-1.375a36.683,36.683,0,0,0-.473-4.2c-.236.115-.57.309-.876.487-2.26,1.312-6.971,4.047-16.623,3.579a14.738,14.738,0,0,1-10.28-4.851,31.472,31.472,0,0,1-2.732-3.6,31.552,31.552,0,0,1-2.743,3.611,14.734,14.734,0,0,1-10.279,4.851c-9.659.464-14.363-2.268-16.622-3.579-.306-.178-.64-.372-.877-.487a36.751,36.751,0,0,0-.472,4.2l-.117,1.376C18.629,173.771,23.362,185.555,24.089,187.271Z" fill="url(#linear-gradient)"/>
    </g>
  </g>
</svg>
