<svg xmlns="http://www.w3.org/2000/svg" xmlns:xlink="http://www.w3.org/1999/xlink" width="48.953" height="73.542" viewBox="0 0 48.953 73.542">
  <defs>
    <linearGradient id="linear-gradient" x1="0.27" y1="0.193" x2="0.66" y2="0.704" gradientUnits="objectBoundingBox">
      <stop offset="0" stop-color="#fcc000"/>
      <stop offset="1" stop-color="#e74c14"/>
    </linearGradient>
  </defs>
  <path id="Path_117" data-name="Path 117" d="M76.5,303.81a6.36,6.36,0,0,0-6.354-6.353,6.293,6.293,0,0,0-2.637.581v-3.826a6.36,6.36,0,0,0-6.353-6.354,6.287,6.287,0,0,0-3.226.884A6.354,6.354,0,0,0,45.57,290.81v.112a6.347,6.347,0,0,0-9.112,5.72v14.533a6.83,6.83,0,0,0-3.916-1.213c-2.467,0-4.99.531-4.99,4.473v19.1c0,.059,0,.112.007.174a24.473,24.473,0,0,0,48.946-.181Zm-24.472,51.8a22.137,22.137,0,0,1-22.086-21.96l-.006-19.218c0-1.578.2-2.088,2.6-2.088a3.806,3.806,0,0,1,3.919,2.812v10.422a1.194,1.194,0,0,0,1.162,1.192c.081,0,8.152.283,13.807,5.939a1.193,1.193,0,1,0,1.687-1.687,24.356,24.356,0,0,0-14.271-6.55V308.088l0-.023V296.642a3.958,3.958,0,0,1,6.732-2.833v27.752a1.193,1.193,0,0,0,2.386,0V292.369c0-.019-.005-.038-.006-.057v-1.5a3.967,3.967,0,0,1,7.917-.373c0,.021-.006.041-.006.062v31.045a1.192,1.192,0,1,0,2.385,0V291.532a3.954,3.954,0,0,1,6.874,2.68v9.266l.011-.013v18.1a1.193,1.193,0,1,0,2.385,0V300.853a3.954,3.954,0,0,1,6.594,2.957v29.6l0,.113A22.114,22.114,0,0,1,52.03,355.613Z" transform="translate(-27.552 -284.456)" fill="url(#linear-gradient)"/>
</svg>
